<svg width="1024" height="1024" viewBox="0 0 1024 1024" fill="none" xmlns="http://www.w3.org/2000/svg">
<rect width="1024" height="1024" fill="#FCFAF5"/>
<path d="M260.822 519.567C308.573 559.247 390.274 591.407 488.169 605.447C607.275 622.529 688.648 610.807 732.768 600.315C723.492 649.486 700.439 721.557 654.417 772.23C593.921 838.839 522.246 882.901 439.676 867.116C367.462 853.31 327.335 814.113 286.361 744.263C267.69 712.435 256.907 675.126 252.76 636.369C252.76 636.369 245.39 572.365 260.822 519.567ZM553.483 158.378C570.887 149.997 597.965 153.676 612.14 164.823C639.234 186.127 619.598 233.242 607.629 255.066C600.48 268.1 591.514 282.139 584.424 298.898C594.413 302.565 612.141 308.598 627.371 315.788C675.88 338.688 704.857 362.184 737.567 397.794C762.952 425.43 774.897 472.209 771.38 509.442C760.002 519.568 745.637 527.976 728.723 532.638C696.948 541.397 620.348 557.148 497.621 539.546C399.95 525.538 329.357 493.193 297.373 463.068H297.374C277.14 444.009 265.565 427.029 259.008 412.903C269.568 385.196 295.92 347.375 339.796 315.788C370.421 293.739 423.298 269.572 476.134 275.691C476.134 259.381 482.894 229.25 492.892 213.167C507.718 189.317 527.795 170.749 553.483 158.378Z" fill="#B284E7"/>
<path d="M737.568 564.73C734.821 606.429 713.627 707.037 654.418 772.23C593.922 838.839 522.247 882.901 439.677 867.116C367.463 853.31 327.336 814.113 286.362 744.264C267.691 712.435 256.908 675.125 252.76 636.368M737.568 564.73C701.835 574.58 620.605 590.814 492.893 572.498C391.846 558.006 313.551 524.036 274.548 487.3C254.37 468.295 249.683 441.799 256.938 418.827C265.797 390.775 292.704 349.691 339.797 315.788C370.422 293.739 423.298 269.572 476.134 275.691M737.568 564.73C785.214 551.596 779.953 456.349 737.568 397.795M584.424 298.898C579.249 306.638 545.345 318.645 527.056 315.788C508.767 312.93 476.134 295.675 476.134 275.691M584.424 298.898C591.515 282.138 600.481 268.1 607.629 255.066C619.598 233.242 639.235 186.127 612.141 164.823C597.966 153.676 570.888 149.998 553.484 158.379C527.796 170.749 507.719 189.317 492.893 213.166C482.895 229.25 476.134 259.381 476.134 275.691M584.424 298.898C594.414 302.564 610.538 307.966 627.372 315.788" stroke="#3D3941" stroke-width="66.5746" stroke-linecap="round"/>
</svg>
