<svg width="24" height="24" viewBox="0 0 24 24" fill="none" xmlns="http://www.w3.org/2000/svg">
<path d="M18 3C19.6569 3 21 4.34315 21 6V18C21 19.6569 19.6569 21 18 21H6C4.34315 21 3 19.6569 3 18V6C3 4.34315 4.34315 3 6 3H18ZM9.58008 11.5088C8.79026 10.7191 7.50665 10.7292 6.72949 11.5312L4.67188 13.6562V17.2969C4.672 18.4013 5.56743 19.2968 6.67188 19.2969H7.9375L12.6426 14.5713L9.58008 11.5088ZM18.4375 14.2842C17.7864 13.1352 16.2192 12.921 15.2842 13.8535L9.82812 19.2969H17.3281C18.4326 19.2968 19.328 18.4013 19.3281 17.2969V15.8564L18.4375 14.2842ZM15.0938 6.45508C14.0954 6.45509 13.2865 7.26445 13.2861 8.2627C13.2861 9.26124 14.0952 10.0713 15.0938 10.0713C16.0923 10.0712 16.9014 9.26121 16.9014 8.2627C16.901 7.26448 16.092 6.45513 15.0938 6.45508Z" fill="#3D3941"/>
</svg>
